<svg width="310" height="285" viewBox="0 0 310 285" fill="none" xmlns="http://www.w3.org/2000/svg">
<path d="M310 126.216C310 163.66 299.901 205.966 268.065 229.405C230.486 257.066 189.221 238.824 147.073 243.502C108.991 247.724 75.0073 269.075 52.6307 244.081C38.3121 228.064 45.3952 205.677 38.6777 192.037C26.8267 167.973 3.64278 154.821 0.596265 125.942C-4.70466 76.3663 26.0803 73.3335 63.461 57.7126C94.703 44.6673 124.041 9.28024 156.288 2.849C251.019 -16.1704 310 63.9762 310 126.216Z" fill="url(#paint0_linear)"/>
<g opacity="0.4" filter="url(#filter0_d)">
<ellipse cx="172.672" cy="162.233" rx="115.672" ry="114.229" fill="#3FD3D0"/>
</g>
<g filter="url(#filter1_d)">
<ellipse cx="167.028" cy="154.655" rx="110.028" ry="108.655" fill="white"/>
</g>
<g clip-path="url(#clip0)">
<path d="M148.888 183.889C148.586 183.889 148.297 183.77 148.083 183.559C147.87 183.347 147.75 183.06 147.75 182.76V146.055C147.755 142.515 149.174 139.122 151.697 136.619C154.219 134.116 157.639 132.708 161.207 132.703H172.118C175.681 132.713 179.094 134.124 181.61 136.626C184.126 139.129 185.539 142.52 185.539 146.055V153.867C185.532 157.406 184.112 160.798 181.59 163.3C179.068 165.803 175.649 167.212 172.082 167.218H156.657C156.366 167.202 156.092 167.076 155.891 166.865C155.691 166.655 155.579 166.376 155.579 166.087C155.579 165.798 155.691 165.519 155.891 165.309C156.092 165.098 156.366 164.972 156.657 164.956H172.093C175.058 164.953 177.902 163.783 179.999 161.703C182.096 159.623 183.276 156.802 183.28 153.86V146.055C183.275 143.121 182.1 140.308 180.011 138.231C177.922 136.155 175.09 134.983 172.133 134.973H161.222C158.255 134.97 155.408 136.135 153.306 138.213C151.205 140.291 150.02 143.111 150.012 146.055V182.76C150.012 183.057 149.894 183.342 149.684 183.554C149.474 183.765 149.188 183.886 148.888 183.889V183.889Z" fill="#939598"/>
<path d="M197.263 167.384C196.961 167.384 196.672 167.265 196.458 167.053C196.245 166.842 196.125 166.554 196.125 166.255V138.83C196.121 137.801 195.705 136.814 194.97 136.088C194.234 135.361 193.238 134.954 192.2 134.955H187.472C187.181 134.939 186.907 134.812 186.707 134.602C186.506 134.392 186.395 134.113 186.395 133.824C186.395 133.534 186.506 133.256 186.707 133.045C186.907 132.835 187.181 132.709 187.472 132.692H192.2C193.838 132.698 195.408 133.346 196.566 134.495C197.724 135.645 198.377 137.202 198.383 138.827V166.251C198.383 166.548 198.266 166.833 198.056 167.045C197.847 167.257 197.562 167.379 197.263 167.384V167.384Z" fill="#939598"/>
<path d="M196.251 129.575L194.102 127.442C193.847 127.188 193.703 126.845 193.703 126.486C193.703 126.127 193.847 125.783 194.102 125.53L196.251 123.397C196.378 123.271 196.529 123.171 196.694 123.103C196.86 123.035 197.038 123 197.217 123C197.397 123 197.574 123.035 197.74 123.103C197.906 123.171 198.056 123.271 198.183 123.397L200.332 125.526C200.588 125.78 200.731 126.124 200.731 126.482C200.731 126.841 200.588 127.185 200.332 127.439L198.183 129.571C198.056 129.697 197.906 129.797 197.74 129.865C197.574 129.934 197.397 129.969 197.217 129.969C197.038 129.969 196.86 129.934 196.694 129.865C196.529 129.797 196.378 129.697 196.251 129.571" fill="#32BCAD"/>
<path d="M231.069 149.541C230.44 149.542 229.818 149.42 229.237 149.182C228.657 148.943 228.13 148.593 227.686 148.151L216.695 137.247C215.957 136.51 215.078 135.926 214.11 135.528C213.143 135.131 212.105 134.927 211.058 134.93H206.359C206.068 134.914 205.794 134.787 205.593 134.577C205.393 134.367 205.281 134.088 205.281 133.799C205.281 133.509 205.393 133.231 205.593 133.021C205.794 132.81 206.068 132.684 206.359 132.668H211.058C212.405 132.664 213.739 132.926 214.983 133.437C216.227 133.949 217.357 134.7 218.306 135.648L229.301 146.553C229.534 146.784 229.81 146.967 230.114 147.092C230.418 147.218 230.743 147.282 231.072 147.282C231.401 147.282 231.727 147.218 232.031 147.092C232.335 146.967 232.611 146.784 232.844 146.553L243.795 135.688C244.745 134.74 245.876 133.989 247.12 133.478C248.365 132.966 249.7 132.704 251.047 132.707H254.866C255.157 132.724 255.431 132.85 255.631 133.06C255.832 133.271 255.943 133.549 255.943 133.838C255.943 134.128 255.832 134.406 255.631 134.617C255.431 134.827 255.157 134.953 254.866 134.97H251.047C249.999 134.967 248.961 135.17 247.993 135.567C247.024 135.965 246.145 136.549 245.406 137.286L234.451 148.151C234.008 148.594 233.481 148.944 232.9 149.182C232.32 149.421 231.697 149.543 231.069 149.541V149.541Z" fill="#939598"/>
<path d="M211.058 167.15H206.359C206.068 167.133 205.794 167.007 205.593 166.797C205.393 166.586 205.281 166.308 205.281 166.018C205.281 165.729 205.393 165.451 205.593 165.24C205.794 165.03 206.068 164.904 206.359 164.887H211.058C212.105 164.89 213.143 164.686 214.11 164.289C215.078 163.891 215.956 163.307 216.695 162.571L227.686 151.666C228.584 150.776 229.8 150.277 231.069 150.277C232.337 150.277 233.554 150.776 234.451 151.666L245.402 162.531C246.141 163.27 247.019 163.856 247.988 164.256C248.956 164.655 249.995 164.86 251.043 164.858H254.862C255.153 164.875 255.427 165.001 255.628 165.211C255.828 165.422 255.94 165.7 255.94 165.99C255.94 166.279 255.828 166.558 255.628 166.768C255.427 166.978 255.153 167.105 254.862 167.121H251.043C249.696 167.124 248.361 166.862 247.116 166.35C245.871 165.838 244.741 165.085 243.791 164.137L232.84 153.264C232.37 152.799 231.733 152.538 231.069 152.538C230.405 152.538 229.768 152.799 229.298 153.264L218.306 164.169C217.357 165.117 216.227 165.868 214.983 166.38C213.739 166.891 212.405 167.153 211.058 167.15V167.15Z" fill="#939598"/>
<path d="M120.877 172.985C119.717 172.989 118.567 172.764 117.495 172.324C116.423 171.883 115.45 171.236 114.632 170.419L105.616 161.477C105.298 161.174 104.873 161.005 104.432 161.005C103.991 161.005 103.567 161.174 103.248 161.477L94.1993 170.452C93.3811 171.268 92.4079 171.915 91.336 172.355C90.2641 172.796 89.1147 173.021 87.9546 173.017H86.1797L97.5963 184.344C99.3094 186.043 101.632 186.997 104.054 186.997C106.476 186.997 108.798 186.043 110.511 184.344L121.961 172.981L120.877 172.985Z" fill="#32BCAD"/>
<path d="M87.9546 141.346C89.1159 141.345 90.2657 141.574 91.3376 142.017C92.4095 142.461 93.3821 143.11 94.1993 143.929L103.248 152.889C103.563 153.2 103.988 153.375 104.432 153.375C104.876 153.375 105.302 153.2 105.616 152.889L114.632 143.929C115.45 143.113 116.424 142.466 117.496 142.026C118.567 141.586 119.717 141.36 120.877 141.364H121.968L110.511 130.018C109.664 129.177 108.657 128.509 107.549 128.053C106.441 127.598 105.253 127.363 104.054 127.363C102.854 127.363 101.667 127.598 100.559 128.053C99.4507 128.509 98.4441 129.177 97.5963 130.018L86.1797 141.346H87.9546Z" fill="#32BCAD"/>
<path d="M131.432 150.785L124.522 143.929C124.366 143.991 124.199 144.024 124.031 144.027H120.885C119.247 144.033 117.678 144.681 116.52 145.831L107.493 154.755C107.091 155.153 106.614 155.47 106.089 155.686C105.564 155.901 105.001 156.012 104.433 156.012C103.864 156.012 103.301 155.901 102.776 155.686C102.251 155.47 101.774 155.153 101.372 154.755L92.3233 145.773C91.1653 144.624 89.5966 143.976 87.9589 143.969H84.0854C83.927 143.966 83.7705 143.934 83.6235 143.875L76.6732 150.785C74.9615 152.485 74 154.789 74 157.192C74 159.595 74.9615 161.899 76.6732 163.599L83.6199 170.491C83.7682 170.433 83.9259 170.401 84.0854 170.397H87.9552C89.5927 170.389 91.161 169.741 92.3196 168.593L101.369 159.615C102.193 158.835 103.289 158.399 104.429 158.399C105.569 158.399 106.665 158.835 107.49 159.615L116.506 168.561C117.664 169.709 119.233 170.357 120.87 170.365H124.016C124.185 170.367 124.352 170.401 124.507 170.466L131.418 163.61C132.266 162.769 132.939 161.77 133.398 160.671C133.857 159.571 134.094 158.393 134.094 157.203C134.094 156.013 133.857 154.835 133.398 153.735C132.939 152.636 132.266 151.637 131.418 150.796" fill="#32BCAD"/>
<path d="M158.283 179.653C157.71 179.679 157.142 179.765 156.588 179.91V182.147C157.012 182.295 157.459 182.369 157.908 182.367C159.036 182.367 159.574 182.006 159.574 180.999C159.574 180.072 159.134 179.653 158.283 179.653V179.653ZM156.195 183.792V179.372H156.508L156.537 179.563C157.114 179.41 157.705 179.316 158.301 179.282C158.714 179.252 159.124 179.37 159.458 179.614C159.642 179.789 159.783 180.004 159.872 180.241C159.961 180.479 159.995 180.733 159.971 180.985C159.991 181.266 159.935 181.547 159.806 181.798C159.678 182.049 159.484 182.261 159.243 182.41C158.835 182.61 158.385 182.709 157.93 182.699C157.47 182.696 157.013 182.627 156.574 182.493V183.792H156.195Z" fill="#939598"/>
<path d="M162.821 179.628C161.69 179.628 161.188 179.989 161.188 180.967C161.188 181.945 161.683 182.352 162.821 182.352C163.96 182.352 164.451 181.991 164.451 181.017C164.451 180.043 163.952 179.628 162.821 179.628V179.628ZM164.276 182.352C163.841 182.62 163.332 182.746 162.821 182.713C162.311 182.743 161.803 182.618 161.366 182.352C161.163 182.192 161.003 181.983 160.901 181.745C160.8 181.508 160.76 181.249 160.785 180.992C160.761 180.735 160.802 180.476 160.904 180.238C161.005 180 161.164 179.79 161.366 179.628C161.817 179.401 162.316 179.282 162.821 179.282C163.327 179.282 163.825 179.401 164.276 179.628C164.46 179.805 164.607 180.016 164.707 180.25C164.807 180.484 164.859 180.736 164.859 180.99C164.859 181.244 164.807 181.496 164.707 181.73C164.607 181.964 164.46 182.176 164.276 182.352" fill="#939598"/>
<path d="M169.625 182.608L168.366 179.924H168.341L167.108 182.608H166.744L165.398 179.361H165.817L166.937 182.078H166.962L168.177 179.361H168.541L169.788 182.078H169.814L170.905 179.361H171.312L169.967 182.608H169.625Z" fill="#939598"/>
<path d="M173.747 179.621C172.7 179.621 172.343 180.083 172.292 180.75H175.224C175.191 180.028 174.813 179.621 173.769 179.621H173.747ZM173.769 182.699C173.287 182.748 172.804 182.62 172.412 182.338C172.068 181.959 171.885 181.462 171.904 180.952C171.922 180.442 172.14 179.96 172.511 179.606C172.891 179.371 173.336 179.257 173.784 179.282C174.241 179.254 174.696 179.363 175.089 179.595C175.558 179.909 175.649 180.461 175.649 181.089H172.303C172.303 181.753 172.536 182.345 173.802 182.345C174.369 182.332 174.933 182.269 175.489 182.157V182.497C174.923 182.614 174.347 182.681 173.769 182.699" fill="#939598"/>
<path d="M176.711 182.608V179.361H177.02L177.053 179.552C177.577 179.381 178.123 179.287 178.675 179.271H178.722V179.631H178.631C178.109 179.642 177.59 179.729 177.093 179.888V182.601L176.711 182.608Z" fill="#939598"/>
<path d="M180.93 179.621C179.886 179.621 179.53 180.083 179.475 180.75H182.41C182.378 180.029 181.996 179.621 180.956 179.621H180.93ZM180.956 182.699C180.474 182.749 179.991 182.621 179.599 182.338C179.252 181.96 179.069 181.463 179.087 180.952C179.106 180.442 179.324 179.959 179.697 179.606C180.067 179.382 180.497 179.273 180.93 179.292C181.387 179.264 181.842 179.374 182.236 179.606C182.709 179.92 182.799 180.472 182.799 181.1H179.475C179.475 181.764 179.708 182.356 180.974 182.356C181.539 182.342 182.103 182.28 182.658 182.168V182.508C182.092 182.625 181.518 182.692 180.941 182.71" fill="#939598"/>
<path d="M186.979 179.845C186.556 179.698 186.11 179.625 185.662 179.628C184.531 179.628 183.993 179.989 183.993 180.992C183.993 181.995 184.433 182.338 185.284 182.338C185.856 182.312 186.424 182.228 186.979 182.089V179.845ZM187.052 182.609L187.019 182.414C186.442 182.568 185.851 182.663 185.255 182.699C185.024 182.729 184.789 182.705 184.569 182.629C184.35 182.553 184.151 182.427 183.988 182.261C183.826 182.095 183.705 181.894 183.635 181.674C183.566 181.454 183.548 181.22 183.585 180.992C183.564 180.712 183.62 180.432 183.749 180.182C183.877 179.932 184.072 179.722 184.313 179.574C184.722 179.37 185.175 179.269 185.633 179.282C186.09 179.287 186.545 179.356 186.982 179.487V178.004H187.364V182.609H187.052Z" fill="#939598"/>
<path d="M192.948 179.653C192.376 179.679 191.807 179.765 191.253 179.91V182.14C191.676 182.293 192.123 182.37 192.573 182.367C193.701 182.367 194.239 182.006 194.239 180.999C194.239 180.072 193.799 179.653 192.948 179.653V179.653ZM193.923 182.425C193.515 182.624 193.064 182.723 192.61 182.713C192.115 182.708 191.624 182.626 191.155 182.468L191.133 182.623H190.875V178.004H191.257V179.549C191.822 179.406 192.399 179.316 192.981 179.282C193.394 179.253 193.804 179.37 194.137 179.614C194.321 179.789 194.463 180.004 194.552 180.241C194.641 180.479 194.674 180.733 194.65 180.985C194.671 181.266 194.614 181.547 194.486 181.798C194.358 182.049 194.163 182.261 193.923 182.41" fill="#939598"/>
<path d="M195.154 183.85V183.489C195.34 183.507 195.518 183.522 195.638 183.522C195.859 183.539 196.08 183.483 196.265 183.362C196.45 183.241 196.589 183.062 196.66 182.854L196.78 182.598L195.078 179.35H195.515L196.969 182.143H196.995L198.384 179.35H198.817L196.98 182.984C196.883 183.259 196.696 183.495 196.449 183.654C196.203 183.812 195.91 183.885 195.616 183.861C195.459 183.86 195.303 183.849 195.147 183.828" fill="#939598"/>
<path d="M204.075 180.761H202.81V181.898H204.083C204.955 181.898 205.283 181.8 205.283 181.324C205.283 180.848 204.832 180.761 204.075 180.761ZM203.842 178.932H202.81V180.086H203.842C204.704 180.086 205.046 179.985 205.046 179.502C205.046 179.018 204.621 178.932 203.842 178.932ZM205.81 182.313C205.345 182.605 204.781 182.62 203.752 182.62H201.82V178.21H203.708C204.595 178.21 205.137 178.21 205.588 178.491C205.738 178.581 205.86 178.71 205.94 178.864C206.019 179.018 206.054 179.192 206.039 179.365C206.051 179.581 205.989 179.795 205.863 179.972C205.737 180.149 205.554 180.278 205.345 180.339V180.375C205.912 180.501 206.279 180.79 206.279 181.414C206.293 181.592 206.256 181.769 206.173 181.927C206.09 182.084 205.965 182.216 205.81 182.306" fill="#939598"/>
<path d="M210.146 181.248C209.764 181.216 209.375 181.198 208.971 181.198C208.306 181.198 208.073 181.331 208.073 181.634C208.073 181.937 208.265 182.071 208.775 182.071C209.237 182.053 209.697 181.988 210.146 181.876V181.248ZM210.339 182.609L210.313 182.414C209.736 182.576 209.141 182.672 208.542 182.699C208.195 182.721 207.85 182.638 207.553 182.461C207.432 182.37 207.336 182.251 207.273 182.114C207.209 181.977 207.18 181.828 207.189 181.678C207.18 181.493 207.228 181.311 207.326 181.154C207.424 180.998 207.568 180.874 207.738 180.801C208.129 180.658 208.545 180.599 208.96 180.628C209.302 180.628 209.76 180.646 210.142 180.671V180.613C210.142 180.108 209.804 179.942 208.887 179.942C208.524 179.942 208.098 179.942 207.687 180V179.343C208.145 179.307 208.662 179.282 209.087 179.282C209.613 179.236 210.14 179.34 210.608 179.581C210.971 179.844 211.051 180.209 211.051 180.692V182.609H210.339Z" fill="#939598"/>
<path d="M215.31 182.609V180.804C215.31 180.216 215.009 180.003 214.467 180.003C214.017 180.022 213.57 180.091 213.136 180.209V182.594H212.223V179.347H212.968L212.997 179.549C213.57 179.397 214.158 179.311 214.75 179.292C215.152 179.261 215.552 179.38 215.871 179.624C216.002 179.757 216.103 179.916 216.166 180.091C216.229 180.267 216.252 180.453 216.234 180.638V182.619L215.31 182.609Z" fill="#939598"/>
<path d="M218.794 182.699C218.361 182.732 217.93 182.611 217.579 182.356C217.393 182.182 217.25 181.967 217.161 181.73C217.071 181.492 217.038 181.237 217.063 180.985C217.045 180.717 217.098 180.45 217.214 180.208C217.331 179.966 217.508 179.758 217.728 179.603C218.164 179.36 218.662 179.249 219.161 179.282C219.525 179.282 219.889 179.307 220.311 179.343V180.036C219.983 180.007 219.583 179.978 219.27 179.978C218.405 179.978 217.997 180.249 217.997 180.992C217.997 181.735 218.303 181.992 219.012 181.992C219.473 181.977 219.932 181.922 220.383 181.826V182.493C219.861 182.612 219.329 182.681 218.794 182.699" fill="#939598"/>
<path d="M223.072 179.96C222.206 179.96 221.825 180.231 221.825 180.967C221.825 181.703 222.188 182.017 223.072 182.017C223.956 182.017 224.305 181.754 224.305 181.017C224.305 180.281 223.941 179.96 223.072 179.96V179.96ZM224.636 182.356C224.161 182.623 223.616 182.742 223.072 182.699C222.526 182.741 221.979 182.622 221.501 182.356C221.288 182.201 221.119 181.994 221.011 181.755C220.904 181.516 220.86 181.253 220.886 180.992C220.861 180.73 220.904 180.467 221.011 180.226C221.119 179.986 221.288 179.777 221.501 179.621C221.993 179.397 222.527 179.282 223.068 179.282C223.609 179.282 224.144 179.397 224.636 179.621C224.847 179.777 225.014 179.984 225.121 180.224C225.227 180.463 225.27 180.725 225.243 180.985C225.269 181.246 225.227 181.509 225.12 181.749C225.014 181.989 224.847 182.198 224.636 182.356" fill="#939598"/>
<path d="M230.506 182.699C229.939 182.734 229.377 182.572 228.917 182.24C228.386 181.807 228.226 181.133 228.226 180.407C228.206 180.047 228.278 179.688 228.434 179.362C228.591 179.036 228.826 178.754 229.12 178.542C229.693 178.229 230.345 178.085 230.997 178.127C231.488 178.127 231.99 178.159 232.539 178.203V178.993C232.07 178.953 231.488 178.921 231.034 178.921C229.775 178.921 229.237 179.397 229.237 180.407C229.237 181.418 229.735 181.901 230.666 181.901C231.331 181.88 231.991 181.791 232.637 181.638V182.421C231.938 182.583 231.224 182.677 230.506 182.699Z" fill="#939598"/>
<path d="M235.311 179.859C234.555 179.859 234.264 180.126 234.22 180.62H236.402C236.377 180.094 236.068 179.859 235.311 179.859ZM235.177 182.699C234.687 182.742 234.197 182.615 233.791 182.338C233.607 182.166 233.464 181.955 233.374 181.721C233.283 181.486 233.247 181.235 233.267 180.985C233.254 180.725 233.302 180.467 233.409 180.229C233.516 179.992 233.678 179.784 233.882 179.621C234.312 179.364 234.811 179.246 235.311 179.282C235.805 179.251 236.296 179.364 236.726 179.606C237.25 179.967 237.294 180.537 237.301 181.205H234.198C234.22 181.699 234.486 182.017 235.402 182.017C235.985 182.004 236.566 181.949 237.141 181.851V182.486C236.493 182.608 235.836 182.679 235.177 182.699Z" fill="#939598"/>
<path d="M241.353 182.609V180.804C241.353 180.216 241.052 180.003 240.51 180.003C240.06 180.023 239.613 180.092 239.179 180.209V182.594H238.266V179.347H239.011L239.04 179.549C239.609 179.385 240.195 179.287 240.786 179.256C241.187 179.225 241.585 179.343 241.903 179.588C242.035 179.72 242.136 179.88 242.199 180.055C242.262 180.23 242.285 180.417 242.266 180.602V182.583L241.353 182.609Z" fill="#939598"/>
<path d="M244.851 182.699C244.65 182.719 244.447 182.686 244.261 182.605C244.076 182.524 243.915 182.398 243.793 182.237C243.612 181.943 243.528 181.6 243.553 181.256V180.043H242.895V179.372H243.553L243.651 178.391H244.458V179.372H245.742V180.043H244.458V181.097C244.446 181.306 244.476 181.516 244.546 181.714C244.602 181.818 244.69 181.903 244.797 181.957C244.903 182.01 245.024 182.03 245.142 182.014C245.361 182.01 245.578 181.988 245.793 181.949V182.598C245.484 182.665 245.168 182.704 244.851 182.714" fill="#939598"/>
<path d="M246.633 182.608V179.361H247.378L247.411 179.563C247.932 179.388 248.476 179.29 249.026 179.271H249.142V180.043C249.037 180.043 248.917 180.043 248.826 180.043C248.394 180.044 247.964 180.1 247.546 180.209V182.601L246.633 182.608Z" fill="#939598"/>
<path d="M252.451 181.248C252.087 181.216 251.683 181.198 251.276 181.198C250.61 181.198 250.378 181.331 250.378 181.634C250.378 181.937 250.57 182.071 251.083 182.071C251.545 182.053 252.003 181.988 252.451 181.876V181.248ZM252.647 182.609L252.622 182.414C252.044 182.576 251.45 182.672 250.851 182.699C250.504 182.721 250.159 182.638 249.861 182.461C249.741 182.37 249.645 182.251 249.581 182.114C249.518 181.978 249.489 181.828 249.498 181.678C249.488 181.494 249.536 181.312 249.633 181.155C249.73 180.999 249.873 180.875 250.043 180.801C250.434 180.659 250.85 180.6 251.265 180.628C251.607 180.628 252.065 180.646 252.447 180.671V180.613C252.447 180.108 252.113 179.942 251.196 179.942C250.832 179.942 250.407 179.942 249.992 180V179.343C250.45 179.307 250.967 179.282 251.396 179.282C251.92 179.236 252.446 179.34 252.913 179.581C253.276 179.845 253.36 180.209 253.36 180.693V182.609H252.647Z" fill="#939598"/>
<path d="M254.535 178.004H255.444V182.609H254.535V178.004Z" fill="#939598"/>
</g>
<defs>
<filter id="filter0_d" x="53" y="48.0039" width="239.343" height="236.458" filterUnits="userSpaceOnUse" color-interpolation-filters="sRGB">
<feFlood flood-opacity="0" result="BackgroundImageFix"/>
<feColorMatrix in="SourceAlpha" type="matrix" values="0 0 0 0 0 0 0 0 0 0 0 0 0 0 0 0 0 0 127 0"/>
<feOffset dy="4"/>
<feGaussianBlur stdDeviation="2"/>
<feColorMatrix type="matrix" values="0 0 0 0 0.344531 0 0 0 0 0.6125 0 0 0 0 0.594635 0 0 0 0.07 0"/>
<feBlend mode="normal" in2="BackgroundImageFix" result="effect1_dropShadow"/>
<feBlend mode="normal" in="SourceGraphic" in2="effect1_dropShadow" result="shape"/>
</filter>
<filter id="filter1_d" x="53" y="46" width="228.055" height="225.311" filterUnits="userSpaceOnUse" color-interpolation-filters="sRGB">
<feFlood flood-opacity="0" result="BackgroundImageFix"/>
<feColorMatrix in="SourceAlpha" type="matrix" values="0 0 0 0 0 0 0 0 0 0 0 0 0 0 0 0 0 0 127 0"/>
<feOffset dy="4"/>
<feGaussianBlur stdDeviation="2"/>
<feColorMatrix type="matrix" values="0 0 0 0 0.344531 0 0 0 0 0.6125 0 0 0 0 0.594635 0 0 0 0.07 0"/>
<feBlend mode="normal" in2="BackgroundImageFix" result="effect1_dropShadow"/>
<feBlend mode="normal" in="SourceGraphic" in2="effect1_dropShadow" result="shape"/>
</filter>
<linearGradient id="paint0_linear" x1="23.25" y1="457.878" x2="478.754" y2="262.235" gradientUnits="userSpaceOnUse">
<stop offset="0.20201" stop-color="#5CDBCF" stop-opacity="0.90721"/>
<stop offset="0.954551" stop-color="#DBFFCC"/>
</linearGradient>
<clipPath id="clip0">
<rect width="182" height="64" fill="white" transform="translate(74 123)"/>
</clipPath>
</defs>
</svg>
